HIERARCHY
ROOT Hips
{
 OFFSET 0.000000 0.000000 0.000000
 CHANNELS 6 Xposition Yposition Zposition Yrotation Xrotation Zrotation
 JOINT Chest
 {
  OFFSET 0.000000 9.588913 -0.003946
  CHANNELS 3 Yrotation Xrotation Zrotation
  JOINT Chest2
  {
   OFFSET 0.000000 9.541882 0.008053
   CHANNELS 3 Yrotation Xrotation Zrotation
   JOINT Chest3
   {
    OFFSET 0.000000 9.501360 0.000000
    CHANNELS 3 Yrotation Xrotation Zrotation
    JOINT Chest4
    {
     OFFSET 0.000000 9.491660 0.000000
     CHANNELS 3 Yrotation Xrotation Zrotation
     JOINT Neck
     {
      OFFSET 0.000000 14.331917 0.000000
      CHANNELS 3 Yrotation Xrotation Zrotation
      JOINT Head
      {
       OFFSET 0.000000 8.884799 0.017034
       CHANNELS 3 Yrotation Xrotation Zrotation
       End Site
       {
        OFFSET 0.000000 16.896195 0.008993
       }
      }
     }
     JOINT RightCollar
     {
      OFFSET -2.923010 9.499495 0.000000
      CHANNELS 3 Yrotation Xrotation Zrotation
      JOINT RightShoulder
      {
       OFFSET -13.795216 0.000000 0.000000
       CHANNELS 3 Yrotation Xrotation Zrotation
       JOINT RightElbow
       {
        OFFSET -30.272209 0.000000 0.000000
        CHANNELS 3 Yrotation Xrotation Zrotation
        JOINT RightWrist
        {
         OFFSET -24.478199 0.000000 0.000000
         CHANNELS 3 Yrotation Xrotation Zrotation
         End Site
         {
          OFFSET -18.090752 0.000000 0.000000
         }
        }
       }
      }
     }
     JOINT LeftCollar
     {
      OFFSET 2.923010 9.499495 0.000000
      CHANNELS 3 Yrotation Xrotation Zrotation
      JOINT LeftShoulder
      {
       OFFSET 13.795216 0.000000 0.000000
       CHANNELS 3 Yrotation Xrotation Zrotation
       JOINT LeftElbow
       {
        OFFSET 30.272209 0.000000 0.000000
        CHANNELS 3 Yrotation Xrotation Zrotation
        JOINT LeftWrist
        {
         OFFSET 24.478199 0.000000 0.000000
         CHANNELS 3 Yrotation Xrotation Zrotation
         End Site
         {
          OFFSET 18.090752 0.000000 0.000000
         }
        }
       }
      }
     }
    }
   }
  }
 }
 JOINT RightHip
 {
  OFFSET -7.826875 0.019532 0.001973
  CHANNELS 3 Yrotation Xrotation Zrotation
  JOINT RightKnee
  {
   OFFSET 0.000000 -40.546152 -0.001885
   CHANNELS 3 Yrotation Xrotation Zrotation
   JOINT RightAnkle
   {
    OFFSET 0.000000 -39.417092 -0.003189
    CHANNELS 3 Yrotation Xrotation Zrotation
    JOINT RightToe
    {
     OFFSET 0.000000 -7.579396 17.243563
     CHANNELS 3 Yrotation Xrotation Zrotation
     End Site
     {
      OFFSET 0.000000 -1.500329 6.694466
     }
    }
   }
  }
 }
 JOINT LeftHip
 {
  OFFSET 7.826875 0.019532 0.001973
  CHANNELS 3 Yrotation Xrotation Zrotation
  JOINT LeftKnee
  {
   OFFSET 0.000000 -40.546152 -0.001885
   CHANNELS 3 Yrotation Xrotation Zrotation
   JOINT LeftAnkle
   {
    OFFSET 0.000000 -39.417092 -0.003189
    CHANNELS 3 Yrotation Xrotation Zrotation
    JOINT LeftToe
    {
     OFFSET 0.000000 -7.579396 17.243563
     CHANNELS 3 Yrotation Xrotation Zrotation
     End Site
     {
      OFFSET 0.000000 -1.500329 6.694466
     }
    }
   }
  }
 }
}
MOTION
Frames: 9
Frame Time: 0.008333
-11.983216 50.729741 -23.663797 46.807206 -28.321231 -1.491391 -2.341788 12.010501 -0.543108 -1.326277 6.865948 -0.239201 -1.665375 8.581418 -0.324642 -1.326278 6.865948 -0.239201 2.208098 8.341952 -1.311065 2.718087 -16.886641 -1.955003 12.768901 -7.061703 -4.975045 26.920757 -33.573131 47.345388 54.251792 -8.831254 35.128156 0.143367 -4.256143 -6.627990 -1.210023 -7.729667 2.092468 -8.604635 -33.009008 -55.320011 -64.887189 -15.408163 -57.214718 13.660172 -1.492024 6.997188 13.660056 -50.164728 -37.704325 99.588779 61.678338 112.405362 -3.534563 -16.160546 -1.931419 -0.001093 -0.003935 -0.000018 21.244442 -44.187031 -46.324203 82.931749 50.540003 109.640916 -0.124935 -12.823358 -11.476346 0.001523 0.039028 0.007689
-11.984132 50.729908 -23.667910 46.797002 -28.367283 -1.482425 -2.355211 11.990996 -0.540781 -1.333984 6.854247 -0.236231 -1.674952 8.566797 -0.321022 -1.333985 6.854247 -0.236230 2.246295 8.338368 -1.260544 2.747798 -16.890562 -1.909201 12.656142 -6.952773 -4.881819 26.413339 -33.350879 47.464034 54.834487 -9.130247 35.211367 -0.002783 -4.226961 -6.445111 -1.128618 -7.664231 2.011526 -7.965249 -32.708543 -55.719964 -65.248236 -15.644304 -57.247620 13.686284 -1.435537 6.931551 13.652618 -50.126789 -37.689998 99.587836 61.674448 112.395523 -3.532577 -16.159457 -1.931313 -0.001615 -0.003089 -0.000317 21.260177 -44.129966 -46.313443 82.907980 50.528247 109.624595 -0.137160 -12.827645 -11.467325 -0.000935 0.041221 0.007173
-11.985577 50.730003 -23.672091 46.786036 -28.412916 -1.475078 -2.369856 11.972882 -0.536444 -1.342966 6.843223 -0.233574 -1.686133 8.553019 -0.317822 -1.342967 6.843224 -0.233574 2.283307 8.335093 -1.211863 2.776666 -16.894162 -1.865121 12.555995 -6.852814 -4.783470 25.890680 -33.111755 47.586108 55.438832 -9.380954 35.271021 -0.141273 -4.196052 -6.315278 -1.046698 -7.602590 1.927484 -7.324056 -32.390695 -56.118778 -65.554008 -15.905648 -57.281880 13.710820 -1.383531 6.846270 13.644362 -50.089673 -37.672582 99.588987 61.676649 112.390066 -3.525454 -16.156976 -1.934483 -0.000585 -0.002662 0.000579 21.276806 -44.073326 -46.301311 82.886473 50.520819 109.613484 -0.144218 -12.832105 -11.461645 -0.001251 0.043032 0.007654
-11.987342 50.730082 -23.676391 46.776758 -28.458797 -1.469048 -2.385686 11.956031 -0.530742 -1.352944 6.833181 -0.231054 -1.698564 8.540468 -0.314814 -1.352944 6.833182 -0.231054 2.319401 8.333876 -1.165279 2.804989 -16.895559 -1.823066 12.461730 -6.763597 -4.679310 25.362966 -32.846820 47.715464 56.070159 -9.593727 35.296320 -0.274018 -4.159972 -6.219867 -0.965478 -7.541610 1.839235 -6.691738 -32.051083 -56.518100 -65.819756 -16.197684 -57.294144 13.767221 -1.325073 6.724810 13.635533 -50.052039 -37.654033 99.588905 61.680239 112.384405 -3.517322 -16.153296 -1.938840 0.001624 -0.002785 0.002370 21.293625 -44.015722 -46.289666 82.863895 50.516091 109.604541 -0.150120 -12.835633 -11.457032 -0.000425 0.044404 0.008145
-11.989233 50.730081 -23.681085 46.769816 -28.504432 -1.462391 -2.403895 11.940269 -0.525188 -1.363629 6.824282 -0.228313 -1.711880 8.529346 -0.311548 -1.363630 6.824283 -0.228313 2.355757 8.334966 -1.122949 2.834587 -16.894500 -1.785685 12.367898 -6.681019 -4.570703 24.836086 -32.559545 47.857699 56.723100 -9.780183 35.286309 -0.409002 -4.115587 -6.141567 -0.881426 -7.477498 1.746552 -6.072026 -31.691661 -56.929082 -66.081148 -16.510568 -57.261308 13.882954 -1.247801 6.562498 13.628777 -50.014170 -37.638957 99.590791 61.683402 112.382214 -3.510530 -16.150089 -1.945110 0.004794 -0.003366 0.005497 21.310201 -43.957211 -46.280966 82.835884 50.514726 109.592676 -0.156180 -12.834967 -11.452111 0.000589 0.045256 0.008069
-11.991389 50.729896 -23.686188 46.762642 -28.548888 -1.454378 -2.424871 11.924692 -0.520434 -1.375030 6.815490 -0.225146 -1.726083 8.518358 -0.307761 -1.375031 6.815491 -0.225146 2.393630 8.339809 -1.085736 2.867005 -16.889441 -1.754198 12.276517 -6.594661 -4.459807 24.311431 -32.261067 48.018351 57.378975 -9.951382 35.242746 -0.547029 -4.070035 -6.058905 -0.787452 -7.402336 1.650303 -5.459338 -31.326243 -57.368010 -66.375910 -16.809738 -57.175892 14.051721 -1.143278 6.377474 13.625719 -49.977042 -37.627357 99.593372 61.684139 112.380915 -3.506348 -16.147732 -1.950928 0.007439 -0.003991 0.008663 21.327408 -43.900440 -46.274988 82.805911 50.515586 109.579180 -0.161323 -12.829801 -11.447675 0.001124 0.044989 0.008202
-11.993847 50.729484 -23.691648 46.755642 -28.591849 -1.445830 -2.447781 11.907808 -0.517082 -1.386985 6.805833 -0.221858 -1.740977 8.506290 -0.303829 -1.386986 6.805834 -0.221858 2.432950 8.349359 -1.050662 2.901396 -16.879343 -1.725310 12.183681 -6.497837 -4.348898 23.790981 -31.965721 48.203887 58.014179 -10.122533 35.173002 -0.683887 -4.035504 -5.947390 -0.678613 -7.311973 1.554509 -4.847053 -30.974703 -57.843962 -66.725217 -17.055461 -57.045151 14.240648 -1.015754 6.188029 13.624566 -49.941611 -37.617504 99.596957 61.682424 112.378030 -3.505993 -16.146354 -1.951904 0.007877 -0.004291 0.010008 21.344833 -43.847793 -46.271609 82.779786 50.518336 109.568055 -0.163684 -12.820750 -11.444407 0.001230 0.043016 0.009179
-11.996205 50.728958 -23.697485 46.749831 -28.634725 -1.436002 -2.470954 11.890355 -0.515379 -1.398854 6.795826 -0.218846 -1.755767 8.493783 -0.300239 -1.398854 6.795827 -0.218846 2.472094 8.362193 -1.015622 2.935499 -16.865717 -1.696351 12.083941 -6.392726 -4.240013 23.267281 -31.687141 48.410783 58.615916 -10.318264 35.109657 -0.829555 -4.020665 -5.807526 -0.556883 -7.214016 1.461289 -4.227133 -30.645943 -58.354298 -67.125133 -17.232090 -56.890428 14.420810 -0.875363 6.001145 13.623543 -49.907425 -37.608279 99.605349 61.679240 112.377505 -3.516789 -16.147517 -1.948347 0.005784 -0.004037 0.010110 21.363095 -43.797727 -46.272794 82.758123 50.518626 109.559691 -0.166104 -12.809237 -11.441358 0.000806 0.039559 0.010432
-11.998497 50.728484 -23.703227 46.744101 -28.679066 -1.427284 -2.491459 11.873470 -0.512037 -1.409452 6.786114 -0.215473 -1.768960 8.481648 -0.296174 -1.409453 6.786115 -0.215472 2.508266 8.377390 -0.981150 2.966388 -16.849539 -1.667238 11.978221 -6.281865 -4.134679 22.718638 -31.425617 48.630433 59.186514 -10.555992 35.079612 -0.982593 -4.021497 -5.634430 -0.432081 -7.113598 1.368071 -3.588763 -30.339937 -58.883685 -67.553051 -17.355293 -56.743367 14.575254 -0.732400 5.827768 13.617602 -49.872498 -37.592382 99.614357 61.676520 112.376470 -3.533485 -16.150702 -1.945587 0.004223 -0.002837 0.010959 21.379605 -43.747775 -46.272822 82.737383 50.512773 109.551485 -0.172462 -12.799366 -11.438294 -0.000404 0.036861 0.011410
